<?xml version="1.0" standalone="no"?>
<!DOCTYPE svg PUBLIC "-//W3C//DTD SVG 20010904//EN"
 "http://www.w3.org/TR/2001/REC-SVG-20010904/DTD/svg10.dtd">
<svg version="1.0" xmlns="http://www.w3.org/2000/svg"
 width="497.000000pt" height="157.000000pt" viewBox="0 0 497.000000 157.000000"
 preserveAspectRatio="xMidYMid meet">

<g transform="translate(0.000000,157.000000) scale(0.100000,-0.100000)"
fill="#000000" stroke="none">
<path d="M2278 1366 c-87 -31 -136 -91 -145 -177 -10 -99 29 -156 175 -254
121 -80 149 -106 168 -151 31 -74 -26 -142 -109 -131 -52 7 -91 46 -121 122
-30 72 -49 95 -79 95 -64 0 -71 -72 -14 -137 90 -102 243 -130 373 -68 86 42
133 140 110 230 -11 43 -91 119 -193 185 -111 73 -157 116 -173 164 -24 74 47
132 131 107 47 -14 112 -85 159 -174 19 -36 38 -63 42 -61 4 3 8 54 8 114 0
128 4 123 -113 139 -102 14 -173 13 -219 -3z"/>
<path d="M292 1363 c2 -5 12 -24 22 -44 l18 -36 -60 -169 c-125 -345 -151
-406 -196 -443 -30 -25 -17 -31 64 -31 44 0 80 2 80 5 0 2 -9 19 -20 37 -24
39 -26 95 -6 143 l15 35 135 0 134 0 16 -47 c22 -65 20 -97 -9 -131 -14 -17
-25 -33 -25 -36 0 -11 338 -7 345 4 3 6 2 10 -3 10 -18 0 -69 61 -90 108 -12
26 -62 160 -113 297 -50 138 -98 262 -106 278 -13 27 -15 27 -109 27 -53 0
-94 -3 -92 -7z m121 -309 c31 -89 53 -165 50 -168 -11 -10 -243 -7 -243 4 0 7
36 110 116 329 8 25 20 1 77 -165z"/>
<path d="M1118 1364 c-4 -3 6 -29 20 -57 l27 -51 0 -251 c0 -269 3 -249 -53
-357 -2 -5 31 -8 73 -8 42 0 75 3 73 8 -55 106 -52 92 -56 346 -3 167 -1 236
7 232 9 -6 88 -99 345 -405 120 -144 154 -181 166 -181 6 0 10 94 10 263 0
281 11 372 50 426 11 16 20 32 20 35 0 8 -145 8 -153 0 -3 -4 3 -18 13 -33 33
-45 50 -136 50 -268 0 -68 -3 -123 -7 -122 -5 0 -55 57 -113 126 -58 69 -140
166 -183 214 l-78 89 -103 0 c-56 0 -105 -3 -108 -6z"/>
<path d="M3160 1360 c0 -5 5 -10 10 -10 6 0 17 -15 26 -33 15 -32 14 -36 -41
-187 -105 -290 -146 -389 -181 -434 -19 -25 -34 -47 -34 -50 0 -3 36 -6 80 -6
80 0 93 6 65 30 -28 23 -36 82 -20 138 l16 52 138 0 138 0 13 -41 c20 -60 17
-104 -8 -138 -12 -17 -22 -33 -22 -36 0 -3 27 -5 60 -5 33 0 60 -2 60 -4 0 -4
-43 -78 -61 -106 -25 -39 -89 -164 -89 -174 0 -6 22 27 48 74 26 47 66 113 90
148 l43 62 94 0 c52 0 95 4 95 9 0 5 -11 16 -25 25 -28 18 -59 72 -50 86 4 6
11 8 16 5 5 -4 9 -1 9 5 0 6 -10 10 -22 8 -21 -3 -31 18 -134 292 l-110 295
-102 3 c-65 2 -102 -1 -102 -8z m84 -172 c34 -93 96 -285 96 -296 0 -18 -240
-17 -240 1 -1 19 114 337 122 337 3 0 13 -19 22 -42z"/>
<path d="M3987 1364 c-4 -4 2 -19 12 -33 42 -62 46 -87 46 -326 0 -198 -3
-237 -18 -277 -10 -25 -25 -52 -33 -58 -27 -24 -13 -30 66 -30 44 0 80 -4 80
-8 0 -4 -14 -30 -32 -58 -17 -27 -51 -87 -75 -134 -23 -47 -47 -92 -52 -100
-19 -28 -63 -125 -87 -188 -25 -66 -31 -112 -14 -112 6 0 10 16 10 35 0 19 11
63 24 97 41 109 163 328 196 351 11 8 17 16 14 20 -3 3 9 26 27 51 32 46 33
46 91 46 32 0 58 2 58 4 0 2 -12 25 -27 52 -21 38 -28 64 -31 131 -4 70 -2 84
12 89 61 23 166 -200 117 -249 -6 -6 -11 -15 -11 -19 0 -4 81 -8 180 -8 99 0
180 4 180 8 0 5 -15 16 -34 24 -18 9 -53 40 -77 69 -93 111 -135 153 -173 169
l-39 18 49 21 c112 50 159 115 152 212 -8 111 -84 178 -225 199 -75 11 -376
14 -386 4z m353 -52 c41 -30 70 -98 70 -164 0 -112 -48 -179 -142 -202 l-28
-6 0 201 0 202 37 -6 c21 -4 49 -15 63 -25z"/>
<path d="M3287 701 c-16 -10 -42 -34 -58 -54 -56 -68 -150 -244 -166 -311 -19
-83 -22 -109 -13 -127 15 -27 16 -24 12 20 -6 58 13 104 79 192 33 43 59 80
59 83 0 3 -16 -11 -36 -32 l-35 -37 22 45 c23 49 85 135 133 187 22 24 32 29
38 20 5 -8 8 -4 8 11 0 27 -7 27 -43 3z"/>
<path d="M3219 533 c-13 -16 -12 -17 4 -4 16 13 21 21 13 21 -2 0 -10 -8 -17
-17z"/>
<path d="M3913 523 c-24 -2 -43 -8 -43 -14 0 -11 10 -11 90 6 65 13 46 16 -47
8z"/>
<path d="M4440 514 c0 -8 9 -14 20 -14 11 0 20 4 20 9 0 5 -9 11 -20 14 -13 3
-20 0 -20 -9z"/>
<path d="M4200 490 c0 -5 5 -10 10 -10 6 0 10 5 10 10 0 6 -4 10 -10 10 -5 0
-10 -4 -10 -10z"/>
<path d="M2585 412 c-65 -40 -124 -134 -112 -179 3 -13 5 -11 6 6 2 38 49 109
94 142 l42 31 3 -26 c4 -32 18 -34 25 -4 6 20 -7 48 -22 48 -3 0 -20 -8 -36
-18z"/>
<path d="M3785 418 c-37 -20 -86 -73 -101 -107 -21 -50 -17 -50 15 1 16 25 47
58 68 72 l38 26 3 -25 c4 -33 20 -32 28 1 4 17 2 29 -7 35 -18 11 -20 11 -44
-3z"/>
<path d="M4391 390 c-32 -36 -56 -109 -41 -124 7 -7 10 -4 10 7 0 15 34 93 47
107 9 10 22 -26 17 -45 -5 -16 -4 -18 6 -8 17 16 19 85 3 90 -7 3 -26 -10 -42
-27z"/>
<path d="M2814 373 c-33 -43 -54 -86 -54 -111 0 -11 6 -6 16 13 21 43 71 101
79 93 4 -4 0 -22 -9 -40 l-16 -33 25 28 c35 40 30 87 -9 87 -2 0 -16 -17 -32
-37z"/>
<path d="M4620 395 c0 -9 -14 -43 -31 -76 -17 -33 -29 -63 -26 -66 4 -3 26 16
51 43 24 27 40 51 35 52 -5 2 -9 14 -9 27 0 13 -4 27 -10 30 -5 3 -10 -1 -10
-10z"/>
<path d="M3493 380 c-37 -22 -66 -72 -60 -103 4 -22 4 -22 6 1 0 14 13 30 34
42 17 11 25 20 17 20 -19 1 29 39 48 40 7 0 10 5 7 10 -9 14 -15 13 -52 -10z"/>
<path d="M4140 358 c-11 -18 -20 -46 -20 -63 0 -27 3 -24 30 29 34 66 34 66
20 66 -6 0 -19 -15 -30 -32z"/>
<path d="M4675 359 c-4 -5 -1 -8 6 -7 7 2 21 -13 30 -32 21 -40 24 -37 8 8
-11 32 -34 48 -44 31z"/>
<path d="M3662 240 c0 -14 2 -19 5 -12 2 6 2 18 0 25 -3 6 -5 1 -5 -13z"/>
<path d="M3110 205 c-14 -8 -20 -14 -14 -15 5 0 19 7 30 15 24 18 16 19 -16 0z"/>
</g>
</svg>
